# xmcd CD database file
#
# Track frame offsets:
#	150
#	26582
#	57147
#	81732
#	106515
#	127467
#	146812
#	163250
#
# Disc length: 2892 seconds
#
# Revision: 0
# Processed by: cddbd v1.5.2PL0 Copyright (c) Steve Scherf et al.
# Submitted via: CDex 1.70beta2
#
DISCID=740b4a08
DTITLE=Allen Holmes - Doris in Mind
DYEAR=2000
DGENRE=Jazz
TTITLE0=Beatrice
TTITLE1=I'm a Fool to Want You
TTITLE2=Doris in Mind
TTITLE3=Pannonica
TTITLE4=Bags' Groove
TTITLE5=untitled
TTITLE6=In a Sentimental Mood
TTITLE7=Motherless Child
EXTD=YEAR: 2000
EXTT0=
EXTT1=
EXTT2=
EXTT3=
EXTT4=
EXTT5=
EXTT6=
EXTT7=
PLAYORDER=
